<?xml version="1.0" encoding="utf-8"?>
<!-- Generator: Adobe Illustrator 16.2.0, SVG Export Plug-In . SVG Version: 6.00 Build 0)  -->
<!DOCTYPE svg PUBLIC "-//W3C//DTD SVG 1.1//EN" "http://www.w3.org/Graphics/SVG/1.1/DTD/svg11.dtd">
<svg version="1.1" id="Calque_1" xmlns="http://www.w3.org/2000/svg" xmlns:xlink="http://www.w3.org/1999/xlink" x="0px" y="0px"
	 width="22px" height="17px" viewBox="0.519 0 22 17" enable-background="new 0.519 0 22 17" xml:space="preserve">
<g>
	<path fill="#FFFFFF" d="M21.63,7H1.374C0.44,7,0.521,7.672,0.521,8.5S0.44,10,1.374,10H21.63c0.932,0,0.889-0.672,0.889-1.5
		S22.562,7,21.63,7z M1.374,3H21.63c0.932,0,0.889-0.671,0.889-1.5S22.562,0,21.63,0H1.374C0.441,0,0.521,0.671,0.521,1.5
		S0.441,3,1.374,3z M21.63,14H1.374c-0.933,0-0.853,0.671-0.853,1.5c0,0.829-0.081,1.5,0.853,1.5H21.63
		c0.932,0,0.889-0.671,0.889-1.5C22.519,14.671,22.562,14,21.63,14z"/>
</g>
</svg>
