<?xml version="1.0" encoding="utf-8"?>
<!-- Generator: Adobe Illustrator 16.2.0, SVG Export Plug-In . SVG Version: 6.00 Build 0)  -->
<!DOCTYPE svg PUBLIC "-//W3C//DTD SVG 1.1//EN" "http://www.w3.org/Graphics/SVG/1.1/DTD/svg11.dtd">
<svg version="1.1" id="Calque_1" xmlns="http://www.w3.org/2000/svg" xmlns:xlink="http://www.w3.org/1999/xlink" x="0px" y="0px"
	 width="12px" height="12px" viewBox="0 0 12 12" enable-background="new 0 0 12 12" xml:space="preserve">
<g>
	<path fill="#444444" d="M6,0.001C2.687,0.001,0.001,2.688,0.001,6S2.687,11.998,6,11.998c3.313,0,5.999-2.686,5.999-5.998
		S9.313,0.001,6,0.001z M6,10.694c-2.592,0-4.694-2.103-4.694-4.694c0-2.593,2.102-4.695,4.694-4.695
		c2.593,0,4.695,2.102,4.695,4.695C10.694,8.592,8.593,10.694,6,10.694z"/>
	<path fill="#444444" d="M6.456,2.609H5.543v3.58l2.22,2.22l0.646-0.646L6.456,5.811V2.609z"/>
</g>
</svg>
