<?xml version="1.0" encoding="utf-8"?>
<!-- Generator: Adobe Illustrator 16.2.0, SVG Export Plug-In . SVG Version: 6.00 Build 0)  -->
<!DOCTYPE svg PUBLIC "-//W3C//DTD SVG 1.1//EN" "http://www.w3.org/Graphics/SVG/1.1/DTD/svg11.dtd">
<svg version="1.1" id="Calque_1" xmlns="http://www.w3.org/2000/svg" xmlns:xlink="http://www.w3.org/1999/xlink" x="0px" y="0px"
	 width="160px" height="26px" viewBox="0 0 160 26" enable-background="new 0 0 160 26" xml:space="preserve">
<g>
	<path fill-rule="evenodd" clip-rule="evenodd" fill="#EEECEA" d="M0,0c0,0,0,4.938,0,12.432C0,19.925,6.268,26,14,26
		c7.731,0,14-6.075,14-13.568C28,4.938,28,0,28,0H0z"/>
</g>
<g>
	<path fill-rule="evenodd" clip-rule="evenodd" fill="#EEECEA" d="M33,0c0,0,0,4.938,0,12.432C33,19.925,39.268,26,47,26
		c7.731,0,14-6.075,14-13.568C61,4.938,61,0,61,0H33z"/>
</g>
<g>
	<path fill-rule="evenodd" clip-rule="evenodd" fill="#EEECEA" d="M66,0c0,0,0,4.938,0,12.432C66,19.925,72.268,26,80,26
		c7.731,0,14-6.075,14-13.568C94,4.938,94,0,94,0H66z"/>
</g>
<g>
	<path fill-rule="evenodd" clip-rule="evenodd" fill="#EEECEA" d="M99,0c0,0,0,4.938,0,12.432C99,19.925,105.268,26,113,26
		c7.732,0,14-6.075,14-13.568C127,4.938,127,0,127,0H99z"/>
</g>
<g>
	<path fill-rule="evenodd" clip-rule="evenodd" fill="#EEECEA" d="M132,0c0,0,0,4.938,0,12.432C132,19.925,138.267,26,146,26
		s14-6.075,14-13.568C160,4.938,160,0,160,0H132z"/>
</g>
<path fill="#054F6C" d="M16.244,14.689c0,0,6.016-4.341,5.35-9.31c-0.015-0.109-0.051-0.181-0.096-0.229
	c-0.046-0.045-0.116-0.083-0.224-0.098c-4.855-0.682-9.098,5.474-9.098,5.474c-3.68-0.441-3.412,0.293-5.091,4.325
	c-0.322,0.77,0.2,1.035,0.771,0.818c0.571-0.217,1.832-0.691,1.832-0.691l2.207,2.258c0,0-0.466,1.291-0.676,1.875
	c-0.211,0.584,0.047,1.117,0.799,0.789C15.958,18.18,16.675,18.455,16.244,14.689z M17.104,9.646c-0.51-0.521-0.51-1.367,0-1.888
	c0.509-0.521,1.335-0.521,1.846,0c0.509,0.521,0.509,1.367,0,1.888C18.439,10.168,17.613,10.168,17.104,9.646z"/>
<path fill="#054F6C" d="M47.169,3.764c-0.022-0.179-0.316-0.179-0.338,0c-0.736,5.923-4.498,7.144-4.498,11.26
	c0,2.544,2.136,4.606,4.667,4.606c2.531,0,4.667-2.063,4.667-4.606C51.667,10.907,47.905,9.687,47.169,3.764z M46.458,10.312
	c-0.049,0.182-0.103,0.37-0.157,0.564c-0.334,1.187-0.714,2.533-0.714,4.089c0,0.843-0.498,1.143-0.964,1.143
	c-0.532,0-0.964-0.436-0.964-0.972c0-1.839,0.886-3.041,1.667-4.101c0.245-0.332,0.476-0.646,0.664-0.958
	c0.086-0.143,0.317-0.137,0.422,0.005C46.463,10.149,46.479,10.233,46.458,10.312z"/>
<path fill="#054F6C" d="M79.19,6.817c-0.336-0.316-0.79-0.316-1.125,0l-5.834,5.249l5.834,5.249c0.336,0.316,0.79,0.316,1.125,0
	s0.336-0.828,0-1.145l-4.53-4.104l4.53-4.103C79.526,7.646,79.526,7.134,79.19,6.817z M82.666,6.817
	c-0.336-0.316-0.789-0.316-1.125,0c-0.336,0.317-0.317,0.829,0.019,1.146l4.511,4.103l-4.511,4.104
	c-0.336,0.316-0.354,0.828-0.019,1.145c0.336,0.316,0.79,0.316,1.125,0l5.834-5.249L82.666,6.817z"/>
<path fill="#054F6C" d="M150.793,9.858h0.565v1.61l3.359-2.88l-3.359-2.88v1.91h-0.565c-2.955,0-4.622,2.19-6.091,4.122
	c-1.322,1.737-2.464,3.238-4.31,3.238h-1.675v2.24h1.675c2.956,0,4.622-2.189,6.092-4.122
	C147.806,11.359,148.949,9.858,150.793,9.858z M143.048,11.27c0.125-0.163,0.252-0.33,0.381-0.498c0.313-0.411,0.643-0.845,1-1.277
	c-1.057-0.987-2.332-1.716-4.036-1.716h-1.675v2.24h1.675C141.455,10.019,142.284,10.517,143.048,11.27z M151.359,15.139h-0.565
	c-1.126,0-1.989-0.561-2.792-1.391c-0.081,0.105-0.162,0.211-0.243,0.319c-0.353,0.463-0.732,0.961-1.151,1.453
	c1.086,1.059,2.4,1.859,4.187,1.859h0.565v1.92l3.359-2.881l-3.359-2.879V15.139z"/>
<path fill="#054F6C" d="M121.253,9.613h-5.829l-2.171-6.111l-2.17,6.111h-5.83l4.755,3.589l-1.7,6.3l4.944-3.777l4.944,3.777
	l-1.7-6.3L121.253,9.613z M113.253,13.941l-2.738,2.273l1.129-3.238l-2.591-2.091l3.2,0.091l1-3.673l1,3.673l3.201-0.091
	l-2.592,2.091l1.13,3.238L113.253,13.941z"/>
</svg>
