<?xml version="1.0" encoding="utf-8"?>
<!-- Generator: Adobe Illustrator 16.2.0, SVG Export Plug-In . SVG Version: 6.00 Build 0)  -->
<!DOCTYPE svg PUBLIC "-//W3C//DTD SVG 1.1//EN" "http://www.w3.org/Graphics/SVG/1.1/DTD/svg11.dtd">
<svg version="1.1" id="Calque_1" xmlns="http://www.w3.org/2000/svg" xmlns:xlink="http://www.w3.org/1999/xlink" x="0px" y="0px"
	 width="120.448px" height="17px" viewBox="0 0 120.448 17" enable-background="new 0 0 120.448 17" xml:space="preserve">
<g>
	<path fill="#FFFFFF" d="M11.523,5.841C11.295,4.228,9.75,3,7.978,3C4.773,3,3.568,5.727,3.568,8.568
		C3.568,11.273,4.773,14,7.978,14c2.182,0,3.409-1.5,3.682-3.636h3.454C14.75,14.41,11.955,17,7.978,17C2.955,17,0,13.25,0,8.568
		C0,3.75,2.955,0,7.978,0c3.568,0,6.568,2.091,7,5.841H11.523z"/>
	<path fill="#FFFFFF" d="M22.908,4.545C26.613,4.545,29,7,29,10.75c0,3.728-2.387,6.182-6.091,6.182
		c-3.682,0-6.068-2.455-6.068-6.182C16.84,7,19.227,4.545,22.908,4.545z M22.908,14.5c2.205,0,2.864-1.886,2.864-3.75
		c0-1.887-0.659-3.772-2.864-3.772c-2.182,0-2.841,1.886-2.841,3.772C20.067,12.614,20.727,14.5,22.908,14.5z"/>
	<path fill="#FFFFFF" d="M31.18,0.386h3.227v16.228H31.18V0.386z"/>
	<path fill="#FFFFFF" d="M37.043,0.386h3.228v16.228h-3.228V0.386z"/>
	<path fill="#FFFFFF" d="M45.475,11.523c0.091,2.045,1.091,2.977,2.887,2.977c1.296,0,2.341-0.795,2.545-1.522h2.841
		c-0.91,2.773-2.841,3.955-5.5,3.955c-3.705,0-6-2.545-6-6.182c0-3.523,2.432-6.205,6-6.205c4,0,5.932,3.363,5.704,6.978H45.475z
		 M50.725,9.478c-0.295-1.636-1-2.5-2.568-2.5c-2.045,0-2.636,1.591-2.682,2.5H50.725z"/>
	<path fill="#FFFFFF" d="M63.861,9c-0.205-1.318-1.046-2.022-2.387-2.022c-2.068,0-2.75,2.091-2.75,3.818
		c0,1.682,0.659,3.705,2.682,3.705c1.5,0,2.363-0.955,2.568-2.386h3.113c-0.409,3.114-2.568,4.818-5.659,4.818
		c-3.545,0-5.932-2.5-5.932-6.023c0-3.659,2.182-6.364,6-6.364C64.27,4.545,66.815,6,67.02,9H63.861z"/>
	<path fill="#FFFFFF" d="M72.997,4.864h2.363v2.159h-2.363v5.818c0,1.09,0.272,1.363,1.364,1.363c0.34,0,0.658-0.022,1-0.091v2.523
		c-0.545,0.091-1.25,0.113-1.886,0.113c-1.978,0-3.705-0.455-3.705-2.795V7.023h-1.954V4.864h1.954V1.341h3.228V4.864z"/>
	<path fill="#FFFFFF" d="M80.223,3.045h-3.227V0.386h3.227V3.045z M76.996,4.864h3.227v11.75h-3.227V4.864z"/>
	<path fill="#FFFFFF" d="M88.473,4.545c3.705,0,6.091,2.455,6.091,6.205c0,3.728-2.386,6.182-6.091,6.182
		c-3.682,0-6.068-2.455-6.068-6.182C82.404,7,84.791,4.545,88.473,4.545z M88.473,14.5c2.205,0,2.864-1.886,2.864-3.75
		c0-1.887-0.659-3.772-2.864-3.772c-2.182,0-2.841,1.886-2.841,3.772C85.631,12.614,86.291,14.5,88.473,14.5z"/>
	<path fill="#FFFFFF" d="M96.654,4.864h3.068V6.5h0.068c0.818-1.318,2.228-1.955,3.591-1.955c3.432,0,4.296,1.932,4.296,4.841v7.228
		h-3.228V9.977c0-1.932-0.568-2.886-2.068-2.886c-1.75,0-2.5,0.978-2.5,3.364v6.159h-3.227V4.864z"/>
	<path fill="#FFFFFF" d="M112.629,12.795c0.023,1.409,1.205,1.978,2.477,1.978c0.933,0,2.114-0.363,2.114-1.5
		c0-0.978-1.341-1.318-3.659-1.818c-1.864-0.409-3.728-1.068-3.728-3.136c0-3,2.591-3.773,5.114-3.773
		c2.568,0,4.931,0.864,5.182,3.75h-3.068c-0.091-1.25-1.045-1.591-2.205-1.591c-0.727,0-1.796,0.136-1.796,1.091
		c0,1.159,1.819,1.318,3.659,1.75c1.887,0.432,3.728,1.114,3.728,3.296c0,3.091-2.682,4.091-5.364,4.091
		c-2.728,0-5.387-1.023-5.523-4.137H112.629z"/>
</g>
</svg>
