<?xml version="1.0" encoding="utf-8"?>
<!-- Generator: Adobe Illustrator 16.2.0, SVG Export Plug-In . SVG Version: 6.00 Build 0)  -->
<!DOCTYPE svg PUBLIC "-//W3C//DTD SVG 1.1//EN" "http://www.w3.org/Graphics/SVG/1.1/DTD/svg11.dtd">
<svg version="1.1" id="Calque_1" xmlns="http://www.w3.org/2000/svg" xmlns:xlink="http://www.w3.org/1999/xlink" x="0px" y="0px"
	 width="18.745px" height="23.976px" viewBox="0 0 18.745 23.976" enable-background="new 0 0 18.745 23.976" xml:space="preserve">
<path fill="#FFFFFF" d="M17.222,23.976c-0.373,0-0.745-0.138-1.036-0.415l-7.738-7.392c-0.599-0.572-0.621-1.521-0.048-2.121
	c0.571-0.598,1.521-0.62,2.12-0.048l7.738,7.391c0.599,0.572,0.621,1.522,0.048,2.12C18.012,23.819,17.617,23.976,17.222,23.976z"/>
<path fill="#FFFFFF" d="M15.544,9.965c-0.354,0-0.709-0.125-0.995-0.379L7.76,3.549c-0.619-0.55-0.674-1.498-0.124-2.117
	c0.55-0.62,1.498-0.675,2.117-0.124l6.788,6.037c0.62,0.55,0.675,1.498,0.124,2.116C16.37,9.795,15.958,9.965,15.544,9.965z"/>
<g>
	<path fill="#FFFFFF" d="M5.998-0.024"/>
</g>
<path fill="#FFFFFF" d="M16.504,7.297"/>
<path fill="#FFFFFF" d="M8.237,15.927"/>
<g>
	<path fill="#FFFFFF" d="M18.745,11.972c0,3.313-2.686,5.998-5.999,5.998"/>
	<path fill="#FFFFFF" d="M17.365,15.798c0.861-1.039,1.379-2.372,1.379-3.826c0-1.951-0.932-3.684-2.374-4.779l-1.817,2.388
		c0.724,0.547,1.191,1.416,1.191,2.391c0,0.88-0.381,1.673-0.987,2.223L17.365,15.798"/>
</g>
<path fill="#FFFFFF" d="M17.623,15.046c-0.025,0.371-0.189,0.734-0.486,1.005l-6.915,6.204c-0.612,0.559-1.56,0.516-2.119-0.095
	c-0.559-0.612-0.517-1.561,0.096-2.119l6.915-6.203c0.612-0.56,1.561-0.517,2.119,0.095C17.521,14.248,17.649,14.652,17.623,15.046z
	"/>
<g>
	<path fill="#FFFFFF" d="M5.998,14.971c0.921,0,1.746,0.417,2.296,1.072l2.123-2.13c-1.097-1.193-2.671-1.941-4.419-1.941l0,0
		C2.686,11.972,0,14.658,0,17.97c0,3.313,2.686,5.999,5.998,5.999c1.565,0,2.99-0.601,4.057-1.582l-2.011-2.226
		c-0.536,0.501-1.256,0.809-2.046,0.809c-1.653,0-2.999-1.346-2.999-3C3,16.316,4.345,14.971,5.998,14.971"/>
</g>
<path fill="#FFFFFF" d="M5.998,2.974c-1.317,0-2.438,0.853-2.84,2.037L3.146,5.004L2.999,5.707c0,0.827-0.671,1.499-1.499,1.499
	C0.671,7.206,0,6.522,0,5.707c0-0.91,0.344-1.741,0.344-1.741C1.17,1.641,3.39-0.024,5.998-0.024l0,0
	c1.319,0,2.538,0.425,3.527,1.146L7.972,3.717C7.444,3.255,6.753,2.974,5.998,2.974"/>
</svg>
